<svg viewBox="0 0 512 512" xmlns="http://www.w3.org/2000/svg"><path d="m416 512c33.085938 0 60-26.914062 60-60h-120c0 33.085938 26.914062 60 60 60zm0 0"/><path d="m256 512c33.085938 0 60-26.914062 60-60h-120c0 33.085938 26.914062 60 60 60zm0 0"/><path d="m96 512c33.085938 0 60-26.914062 60-60h-120c0 33.085938 26.914062 60 60 60zm0 0"/><path d="m494 332h-476c-9.925781 0-18 8.074219-18 18v54c0 9.925781 8.074219 18 18 18h476c9.925781 0 18-8.074219 18-18v-54c0-9.925781-8.074219-18-18-18zm0 0"/><path d="m45.90625 221.472656c-19.34375 22.945313-33.507812 50.390625-40.65625 80.527344h117.179688c-13.332032-36.199219-41.214844-65.414062-76.523438-80.527344zm0 0"/><path d="m497 0h-226c-8.285156 0-15 6.714844-15 15v45h78c8.285156 0 15 6.714844 15 15s-6.714844 15-15 15h-78v30h78c8.285156 0 15 6.714844 15 15s-6.714844 15-15 15h-78v2h-61c-48.3125 0-92.570312 17.671875-126.671875 46.878906 40.996094 21.027344 72.375 58.226563 85.6875 103.121094h357.984375v-287c0-8.285156-6.714844-15-15-15zm0 0"/></svg>
