<?xml version="1.0"?>
<svg xmlns="http://www.w3.org/2000/svg" viewBox="-72 0 464 464" class=""><g><path d="m144 188.6875 43.71875-43.71875c5.507812-5.746094 5.410156-14.839844-.21875-20.46875s-14.722656-5.726562-20.46875-.21875l-17.375 17.375c-3.125 3.121094-8.1875 3.121094-11.3125 0l-17.375-17.375c-5.746094-5.507812-14.839844-5.410156-20.46875.21875s-5.726562 14.722656-.21875 20.46875zm0 0" data-original="#000000" class="active-path" data-old_color="#000000" fill="#ED6A5A"/><path d="m56 384c0 4.417969-3.582031 8-8 8s-8-3.582031-8-8 3.582031-8 8-8 8 3.582031 8 8zm0 0" data-original="#000000" class="active-path" data-old_color="#000000" fill="#ED6A5A"/><path d="m56 256c0 4.417969-3.582031 8-8 8s-8-3.582031-8-8 3.582031-8 8-8 8 3.582031 8 8zm0 0" data-original="#000000" class="active-path" data-old_color="#000000" fill="#ED6A5A"/><path d="m56 320c0 4.417969-3.582031 8-8 8s-8-3.582031-8-8 3.582031-8 8-8 8 3.582031 8 8zm0 0" data-original="#000000" class="active-path" data-old_color="#000000" fill="#ED6A5A"/><path d="m288 48h-192v24c0 13.253906-10.746094 24-24 24s-24-10.746094-24-24v-8h16v8c0 4.417969 3.582031 8 8 8s8-3.582031 8-8v-24h-80v384h288zm-240 360c-13.253906 0-24-10.746094-24-24s10.746094-24 24-24 24 10.746094 24 24-10.746094 24-24 24zm0-64c-13.253906 0-24-10.746094-24-24s10.746094-24 24-24 24 10.746094 24 24-10.746094 24-24 24zm0-64c-13.253906 0-24-10.746094-24-24s10.746094-24 24-24 24 10.746094 24 24-10.746094 24-24 24zm62.625-176c8.125-.027344 15.925781 3.203125 21.65625 8.96875l11.71875 11.71875 11.71875-11.71875c11.960938-11.960938 31.351562-11.960938 43.3125 0s11.960938 31.351562 0 43.3125l-49.375 49.375c-3.125 3.121094-8.1875 3.121094-11.3125 0l-49.375-49.375c-8.761719-8.757812-11.382812-21.933594-6.640625-33.378906 4.742187-11.441406 15.910156-18.902344 28.296875-18.902344zm-22.625 240v-16h144v16zm32 16v16h-16v-16zm0-48h-16v-16h16zm-32-32v-16h144v16zm32-32h-16v-16h16zm112 160h-144v-16h144zm32-32h-128v-16h128zm0-64h-128v-16h128zm0-64h-128v-16h128zm0 0" data-original="#000000" class="active-path" data-old_color="#000000" fill="#ED6A5A"/><path d="m304 80v360c0 4.417969-3.582031 8-8 8h-264v16h288v-384zm0 0" data-original="#000000" class="active-path" data-old_color="#000000" fill="#ED6A5A"/><path d="m80 32c0-8.835938-7.164062-16-16-16s-16 7.164062-16 16h-16c0-17.671875 14.328125-32 32-32s32 14.328125 32 32zm0 0" data-original="#000000" class="active-path" data-old_color="#000000" fill="#ED6A5A"/></g> </svg>
