<svg viewBox="0 0 512 512.001" xmlns="http://www.w3.org/2000/svg"><path d="m345.035156 89.195312c-28.445312 9.304688-58.390625 14.09375-89.035156 14.09375s-60.589844-4.789062-89.035156-14.09375c-18.746094 42.417969-40.335938 101.996094-40.335938 166.804688 0 64.8125 21.589844 124.390625 40.335938 166.804688 28.445312-9.304688 58.390625-14.09375 89.035156-14.09375s60.589844 4.789062 89.035156 14.09375c18.746094-42.417969 40.335938-101.996094 40.335938-166.804688 0-64.8125-21.589844-124.390625-40.335938-166.804688zm0 0"/><path d="m437.019531 74.980469c-7.074219-7.074219-14.496093-13.667969-22.214843-19.796875-13.347657 8.9375-27.3125 16.664062-41.765626 23.164062 19.769532 44.945313 42.332032 107.976563 42.332032 177.652344 0 69.667969-22.5625 132.707031-42.335938 177.652344 14.457032 6.5 28.421875 14.226562 41.769532 23.164062 7.71875-6.128906 15.140624-12.722656 22.214843-19.796875 48.351563-48.351562 74.980469-112.640625 74.980469-181.019531s-26.628906-132.667969-74.980469-181.019531zm0 0"/><path d="m256 0c-47.304688 0-92.644531 12.75-132.109375 36.613281 39.769531 24.050781 85.015625 36.675781 132.109375 36.675781 47.097656 0 92.339844-12.625 132.109375-36.675781-39.464844-23.863281-84.804687-36.613281-132.109375-36.613281zm0 0"/><path d="m74.980469 437.019531c7.074219 7.074219 14.5 13.667969 22.21875 19.796875 13.347656-8.9375 27.3125-16.664062 41.765625-23.164062-19.773438-44.945313-42.332032-107.980469-42.332032-177.652344s22.5625-132.707031 42.332032-177.65625c-14.453125-6.5-28.417969-14.222656-41.765625-23.160156-7.71875 6.128906-15.144531 12.722656-22.21875 19.792968-48.351563 48.355469-74.980469 112.644532-74.980469 181.023438s26.628906 132.667969 74.980469 181.019531zm0 0"/><path d="m388.109375 475.386719c-39.769531-24.050781-85.011719-36.675781-132.109375-36.675781-47.09375 0-92.339844 12.625-132.109375 36.675781 39.464844 23.863281 84.808594 36.613281 132.109375 36.613281 47.304688 0 92.644531-12.75 132.109375-36.613281zm0 0"/></svg>
